<svg xmlns="http://www.w3.org/2000/svg" viewBox="0 0 64 64">
  <defs>
    <linearGradient id="g" x1="0%" y1="0%" x2="100%" y2="100%">
      <stop offset="0%" stop-color="#00e5ff"/>
      <stop offset="100%" stop-color="#7c4dff"/>
    </linearGradient>
  </defs>
  <circle cx="32" cy="32" r="30" fill="#060a14" stroke="url(#g)" stroke-width="2"/>
  <g fill="none" stroke="url(#g)" stroke-width="1.5" stroke-linecap="round">
    <!-- Sound waves -->
    <path d="M22 32 Q22 22 32 22 Q42 22 42 32 Q42 42 32 42 Q22 42 22 32" opacity="0.3"/>
    <path d="M18 32 Q18 18 32 18 Q46 18 46 32 Q46 46 32 46 Q18 46 18 32" opacity="0.5"/>
    <path d="M14 32 Q14 14 32 14 Q50 14 50 32 Q50 50 32 50 Q14 50 14 32" opacity="0.7"/>
    <!-- Center node -->
    <circle cx="32" cy="32" r="4" fill="url(#g)" stroke="none"/>
    <!-- Mesh nodes -->
    <circle cx="20" cy="20" r="2.5" fill="#00e5ff" opacity="0.8"/>
    <circle cx="44" cy="20" r="2.5" fill="#00e5ff" opacity="0.8"/>
    <circle cx="20" cy="44" r="2.5" fill="#00e5ff" opacity="0.8"/>
    <circle cx="44" cy="44" r="2.5" fill="#00e5ff" opacity="0.8"/>
    <!-- Mesh lines -->
    <line x1="32" y1="32" x2="20" y2="20" opacity="0.4"/>
    <line x1="32" y1="32" x2="44" y2="20" opacity="0.4"/>
    <line x1="32" y1="32" x2="20" y2="44" opacity="0.4"/>
    <line x1="32" y1="32" x2="44" y2="44" opacity="0.4"/>
  </g>
</svg>
